<!DOCTYPE svg PUBLIC "-//W3C//DTD SVG 1.1//EN" "http://www.w3.org/Graphics/SVG/1.1/DTD/svg11.dtd">
<!-- Uploaded to: SVG Repo, www.svgrepo.com, Transformed by: SVG Repo Mixer Tools -->
<svg fill="#000000" height="201px" width="201px" version="1.1" id="Layer_1" xmlns="http://www.w3.org/2000/svg" xmlns:xlink="http://www.w3.org/1999/xlink" viewBox="-4.21 -4.21 218.83 218.83" xml:space="preserve" transform="matrix(-1, 0, 0, -1, 0, 0)rotate(0)">
<g id="SVGRepo_bgCarrier" stroke-width="0" transform="translate(0,0), scale(1)"/>
<g id="SVGRepo_tracerCarrier" stroke-linecap="round" stroke-linejoin="round" stroke="#0a0a0a" stroke-width="7.574903999999999"> <g> <g> <g> <path d="M105.207,0C47.196,0,0,47.196,0,105.207c0,58.011,47.196,105.207,105.207,105.207 c58.011,0,105.207-47.196,105.207-105.207C210.414,47.196,163.218,0,105.207,0z M105.207,202.621 c-53.715,0-97.414-43.699-97.414-97.414c0-53.715,43.699-97.414,97.414-97.414c53.715,0,97.414,43.699,97.414,97.414 C202.621,158.922,158.922,202.621,105.207,202.621z"/> <path d="M155.862,101.31h-46.759V54.552c0-2.152-1.745-3.897-3.897-3.897s-3.897,1.745-3.897,3.897v46.759H54.552 c-2.152,0-3.897,1.745-3.897,3.897c0,2.152,1.745,3.897,3.897,3.897h46.759v46.759c0,2.152,1.745,3.897,3.897,3.897 s3.897-1.745,3.897-3.897v-46.759h46.759c2.152,0,3.897-1.745,3.897-3.897C159.759,103.055,158.014,101.31,155.862,101.31z"/> </g> </g> </g> </g>
<g id="SVGRepo_iconCarrier"> <g> <g> <g> <path d="M105.207,0C47.196,0,0,47.196,0,105.207c0,58.011,47.196,105.207,105.207,105.207 c58.011,0,105.207-47.196,105.207-105.207C210.414,47.196,163.218,0,105.207,0z M105.207,202.621 c-53.715,0-97.414-43.699-97.414-97.414c0-53.715,43.699-97.414,97.414-97.414c53.715,0,97.414,43.699,97.414,97.414 C202.621,158.922,158.922,202.621,105.207,202.621z"/> <path d="M155.862,101.31h-46.759V54.552c0-2.152-1.745-3.897-3.897-3.897s-3.897,1.745-3.897,3.897v46.759H54.552 c-2.152,0-3.897,1.745-3.897,3.897c0,2.152,1.745,3.897,3.897,3.897h46.759v46.759c0,2.152,1.745,3.897,3.897,3.897 s3.897-1.745,3.897-3.897v-46.759h46.759c2.152,0,3.897-1.745,3.897-3.897C159.759,103.055,158.014,101.31,155.862,101.31z"/> </g> </g> </g> </g>
</svg>